<?xml version="1.0" encoding="utf-8"?><svg xmlns="http://www.w3.org/2000/svg" width="75" height="75" viewBox="0 0 75 75"><defs><style>.a{fill:#0081c9;stroke:#e78f00;stroke-width:10px;}.a,.b{stroke-miterlimit:10;}.b{fill:none;stroke:#fff;stroke-width:0.72px;}.c{fill:#fff;}</style></defs><g transform="translate(5 5)"><circle class="a" cx="32.5" cy="32.5" r="32.5"/><line class="b" y2="15.337" transform="translate(15.551 32.015)"/><line class="b" y2="9.711" transform="translate(30.889 37.641)"/><line class="b" y2="10.482" transform="translate(29.356 36.871)"/><line class="b" y2="11.501" transform="translate(27.823 35.851)"/><line class="b" y2="12.528" transform="translate(26.289 34.824)"/><line class="b" y2="13.548" transform="translate(24.756 33.805)"/><line class="b" y2="14.824" transform="translate(23.223 32.529)"/><line class="b" y2="16.357" transform="translate(21.69 30.996)"/><line class="b" y2="18.66" transform="translate(20.157 28.692)"/><line class="b" y2="20.45" transform="translate(18.624 26.903)"/><line class="b" y2="17.89" transform="translate(17.091 29.462)"/><line class="b" y2="4.856" transform="translate(46.226 42.497)"/><line class="b" y2="5.112" transform="translate(44.693 42.24)"/><line class="b" y2="5.369" transform="translate(43.16 41.983)"/><line class="b" y2="5.883" transform="translate(41.627 41.47)"/><line class="b" y2="6.389" transform="translate(40.094 40.964)"/><line class="b" y2="6.645" transform="translate(38.554 40.707)"/><line class="b" y2="7.159" transform="translate(37.021 40.194)"/><line class="b" y2="7.672" transform="translate(35.488 39.68)"/><line class="b" y2="8.435" transform="translate(33.955 38.917)"/><line class="b" y2="8.949" transform="translate(32.422 38.404)"/><line class="b" y2="2.303" transform="translate(61.556 45.049)"/><line class="b" y2="2.56" transform="translate(60.023 44.793)"/><line class="b" y2="2.816" transform="translate(58.49 44.536)"/><line class="b" y2="3.066" transform="translate(56.957 44.286)"/><line class="b" y2="3.323" transform="translate(55.424 44.03)"/><line class="b" y2="3.579" transform="translate(53.891 43.773)"/><line class="b" y2="3.836" transform="translate(52.358 43.516)"/><line class="b" y2="4.093" transform="translate(50.825 43.26)"/><line class="b" y2="4.349" transform="translate(49.292 43.003)"/><line class="b" y2="4.606" transform="translate(47.759 42.746)"/><line class="b" y2="12.528" transform="translate(14.018 34.824)"/><line class="b" y2="10.225" transform="translate(12.485 37.128)"/><line class="b" y2="8.435" transform="translate(10.952 38.917)"/><line class="b" y2="6.389" transform="translate(9.419 40.964)"/><line class="b" y2="5.112" transform="translate(7.886 42.24)"/><line class="b" y2="3.836" transform="translate(6.353 43.516)"/><line class="b" y2="2.816" transform="translate(4.82 44.536)"/><path class="c" d="M41.609,6.871c-3.259,2.674-6.638,5.148-9.269,8.449a74.8,74.8,0,0,0-6.282,9.269c-2.424,4.071-4.7,8.236-7.216,12.3S13.758,45.2,9.95,47.978c-.3.214,0,.713.285.5,6.852-4.991,10.859-14.168,14.974-21.3a87.639,87.639,0,0,1,7.515-11.451c2.652-3.3,6.032-5.783,9.269-8.449.285-.235-.128-.642-.406-.406Z" transform="translate(-6.385 -5.517)"/><line class="b" x1="39.616" y2="28.878" transform="translate(3.672 4.542)"/></g></svg>