<?xml version="1.0" encoding="utf-8"?><svg xmlns="http://www.w3.org/2000/svg" width="211.102" height="69.37" viewBox="0 0 211.102 69.37"><defs><style>.a,.f{fill:#fff;}.a{font-size:6px;font-family:BwModelica-Bold, Bw Modelica;font-weight:700;letter-spacing:0.11em;}.b{letter-spacing:0.08em;}.c{letter-spacing:0.1em;}.d{letter-spacing:0.07em;}.e,.g{fill:none;stroke:#fff;stroke-miterlimit:10;}.e{stroke-width:0.62px;}.g{stroke-width:0.83px;}.h{fill:#a1d3e5;}</style></defs><g transform="translate(0.002 -0.02)"><text class="a" transform="translate(50.78 47.37)"><tspan x="0" y="0">CLINICA</tspan><tspan class="b" y="0">L</tspan><tspan y="0" xml:space="preserve"> PREDICTION MODE</tspan><tspan class="b" y="0">L</tspan><tspan y="0" xml:space="preserve"> R</tspan><tspan class="c" y="0">E</tspan><tspan y="0">GI</tspan><tspan class="c" y="0">S</tspan><tspan y="0">T</tspan><tspan class="d" y="0">R</tspan><tspan class="b" y="0">Y</tspan></text><line class="e" y2="23.04" transform="translate(18.48 46.35)"/><line class="e" y2="14.59" transform="translate(41.52 54.8)"/><line class="e" y2="15.75" transform="translate(39.21 53.64)"/><line class="e" y2="17.28" transform="translate(36.91 52.11)"/><line class="e" y2="18.82" transform="translate(34.61 50.57)"/><line class="e" y2="20.35" transform="translate(32.3 49.04)"/><line class="e" y2="22.27" transform="translate(30 47.12)"/><line class="e" y2="24.58" transform="translate(27.7 44.81)"/><line class="e" y2="28.03" transform="translate(25.39 41.36)"/><line class="e" y2="30.72" transform="translate(23.09 38.67)"/><line class="e" y2="26.88" transform="translate(20.78 42.51)"/><line class="e" y2="7.3" transform="translate(64.56 62.09)"/><line class="e" y2="7.68" transform="translate(62.25 61.71)"/><line class="e" y2="8.07" transform="translate(59.95 61.32)"/><line class="e" y2="8.83" transform="translate(57.64 60.56)"/><line class="e" y2="9.6" transform="translate(55.34 59.79)"/><line class="e" y2="9.99" transform="translate(53.04 59.4)"/><line class="e" y2="10.75" transform="translate(50.73 58.64)"/><line class="e" y2="11.52" transform="translate(48.43 57.87)"/><line class="e" y2="12.67" transform="translate(46.13 56.72)"/><line class="e" y2="13.44" transform="translate(43.82 55.95)"/><line class="e" y2="3.46" transform="translate(87.59 65.93)"/><line class="e" y2="3.84" transform="translate(85.29 65.55)"/><line class="e" y2="4.23" transform="translate(82.99 65.16)"/><line class="e" y2="4.61" transform="translate(80.68 64.78)"/><line class="e" y2="4.99" transform="translate(78.38 64.4)"/><line class="e" y2="5.38" transform="translate(76.07 64.01)"/><line class="e" y2="5.76" transform="translate(73.77 63.63)"/><line class="e" y2="6.15" transform="translate(71.47 63.24)"/><line class="e" y2="6.53" transform="translate(69.16 62.86)"/><line class="e" y2="6.91" transform="translate(66.86 62.48)"/><line class="e" y2="18.82" transform="translate(16.18 50.57)"/><line class="e" y2="15.36" transform="translate(13.87 54.03)"/><line class="e" y2="12.67" transform="translate(11.57 56.72)"/><line class="e" y2="9.6" transform="translate(9.27 59.79)"/><line class="e" y2="7.68" transform="translate(6.96 61.71)"/><line class="e" y2="5.76" transform="translate(4.66 63.63)"/><line class="e" y2="4.23" transform="translate(2.35 65.16)"/><path class="f" d="M47.89.15c-9,7.38-16.48,14.37-22,24.78C18.69,38.44,12.42,52.12.21,62c-.62.5.26,1.37.88.88,11.6-9.37,18.09-22.25,24.78-35.23a78.789,78.789,0,0,1,9.92-15.11c3.75-4.41,8.52-7.83,13-11.49.62-.51-.26-1.38-.88-.88Z"/><line class="g" x1="59.51" y2="43.39" transform="translate(0.63 5.07)"/><path class="f" d="M109.44,26.93c0,3-2.14,5.08-5.38,5.08h-3.7v5.72H98.09V22h6C107.32,22,109.44,24,109.44,26.93Zm-2.36.06a3,3,0,0,0-3.23-3.12h-3.49v6.27h3.49A3,3,0,0,0,107.08,27Z"/><path class="f" d="M112.93,34.07l-1.53,3.66H109L115.8,22h2.11l6.8,15.73h-2.4l-1.53-3.66Zm3.93-9.29-3.12,7.42H120Z"/><path class="f" d="M133.49,23.65c-3.51,0-5.82,2.47-5.82,6.17s2.33,6.25,5.8,6.25a5.7,5.7,0,0,0,4.95-2.63l1.56,1.4a7.88,7.88,0,0,1-6.53,3.1c-4.87,0-8.14-3.25-8.14-8.12s3.25-8,8.12-8a7.82,7.82,0,0,1,6.06,2.56l-1.43,1.44a5.75,5.75,0,0,0-4.57-2.17Z"/><path class="f" d="M152.86,37.73H142.53V22h10.16v1.87H144.8V28.8h7.3v1.87h-7.3v5.19h8.06Z"/><path class="f" d="M168.57,25.4a4.09,4.09,0,0,0-4.21,4.44,4.18,4.18,0,0,0,4.34,4.49,4.24,4.24,0,0,0,3.94-2.28l2.93,2.64a8.16,8.16,0,0,1-7,3.25c-5.23,0-8.76-3.27-8.76-8.14s3.48-8,8.71-8A8.4,8.4,0,0,1,175,24.29l-2.75,2.81a4.39,4.39,0,0,0-3.68-1.7Z"/><path class="f" d="M190.18,27.38c0,3.4-2.43,5.67-6.11,5.67h-2.42v4.68h-4.38V22h7C187.84,22,190.18,24.14,190.18,27.38Zm-4.51.15a1.75,1.75,0,0,0-1.81-1.92h-2.21v3.83h2.21a1.71,1.71,0,0,0,1.81-1.91Z"/><path class="f" d="M206.29,30.46l-2.67,7.27h-4.43l-2.65-7.25-.45,7.25h-4.38l1.17-15.63h4.27l4.25,11.76,4.26-11.76h4.27l1.17,15.63h-4.38Z"/><path class="h" d="M53.86,36.11V25H50.79v3.8H49V23.09H61v3.82H59.17V25H56.11V36.11h1.94V38H52V36.11Z"/><path class="h" d="M70.77,36.16V38H67V36.78a5.7,5.7,0,0,1-3.42,1.36,3.06,3.06,0,0,1-1.72-.45,2.21,2.21,0,0,1-.9-1.18,8.56,8.56,0,0,1-.23-2.33V29.42H59.21V27.61h3.5v6.32a12,12,0,0,0,.07,1.54,1.05,1.05,0,0,0,.37.65,1.2,1.2,0,0,0,.78.26A4.81,4.81,0,0,0,67,35V29.42H65.12V27.61H69v8.55Z"/><path class="h" d="M72.92,36.16V29.41H71.41v-1.8h1.51V26.12a3.55,3.55,0,0,1,.8-2.61,3.29,3.29,0,0,1,1.9-.72,3.72,3.72,0,0,1,3.6,1.63L78,25.54a1.92,1.92,0,0,0-1.52-1,1.81,1.81,0,0,0-1.39.56,1.89,1.89,0,0,0-.15,1v1.49h1.78v1.8H75v6.75h2V38H71.41V36.16Z"/><path class="h" d="M77.35,29.42V27.61h1.34V26l2-1.86v3.45H82.6V29.4H80.73v5a4.74,4.74,0,0,0,.13,1.49c.09.19.31.29.67.29A2.85,2.85,0,0,0,82.64,36v1.85a4.51,4.51,0,0,1-1.56.28,2.59,2.59,0,0,1-1.51-.41,1.77,1.77,0,0,1-.73-1,10.46,10.46,0,0,1-.15-2.14V29.42Z"/><path class="h" d="M83.41,38V34.42h1.81v.34A1.72,1.72,0,0,0,86,36a2.87,2.87,0,0,0,1.63.47,3.14,3.14,0,0,0,1.58-.34,1.06,1.06,0,0,0,.58-1,.92.92,0,0,0-.48-.86,6.36,6.36,0,0,0-1.93-.51,6.31,6.31,0,0,1-3.06-1.17,2.67,2.67,0,0,1-.91-2.1,2.79,2.79,0,0,1,1-2.17A3.84,3.84,0,0,1,87,27.45a5.06,5.06,0,0,1,2.53.6v-.44h1.81v3.44H89.56v-.63a2.69,2.69,0,0,0-2.4-1.28,2.36,2.36,0,0,0-1.32.35,1.06,1.06,0,0,0-.52.93.79.79,0,0,0,.48.8,9.46,9.46,0,0,0,2,.47,10.54,10.54,0,0,1,2.28.55,2.8,2.8,0,0,1,1.27,1,2.92,2.92,0,0,1,.51,1.7,2.74,2.74,0,0,1-1.11,2.3,5.27,5.27,0,0,1-5.58.1V38Z"/></g></svg>